<?xml version="1.0" encoding="utf-8"?>
<!-- Generator: Adobe Illustrator 22.1.0, SVG Export Plug-In . SVG Version: 6.00 Build 0)  -->
<svg version="1.1"
	 id="Layer_1" xmlns:cc="http://creativecommons.org/ns#" xmlns:dc="http://purl.org/dc/elements/1.1/" xmlns:inkscape="http://www.inkscape.org/namespaces/inkscape" xmlns:rdf="http://www.w3.org/1999/02/22-rdf-syntax-ns#" xmlns:sodipodi="http://sodipodi.sourceforge.net/DTD/sodipodi-0.dtd" xmlns:svg="http://www.w3.org/2000/svg"
	 xmlns="http://www.w3.org/2000/svg" xmlns:xlink="http://www.w3.org/1999/xlink" x="0px" y="0px" viewBox="0 0 300 226"
	 style="enable-background:new 0 0 300 226;" xml:space="preserve">
<style type="text/css">
	.st0{fill:#097976;}
</style>
<g transform="translate(0,-953.36218)">
	<path class="st0" d="M107.5,964.4c-19.1,1.5-33.2,6.7-45.8,11.2s-23.6,8.5-37.8,8.6c-3.3,0.1-5.9,2.7-5.9,6V1159c0,3.3,2.7,6,6,6
		c28.2,0.2,48.9-9.6,66.9-13.8c18-4.1,32.8-3.9,55.1,15.7c2.3,2,5.6,2,7.9,0c22.3-19.6,37.1-19.8,55.1-15.7
		c18,4.1,38.7,14,66.9,13.8c3.3,0,6-2.7,6-6V990.2c0-3.3-2.6-5.9-5.9-6c-14.1-0.1-25.2-4-37.8-8.6s-26.7-9.8-45.8-11.2
		c-0.1,0-0.2,0-0.3,0c-12.9-0.3-26.9,3.1-42.2,15.1c-15.3-12-29.3-15.4-42.2-15.1C107.7,964.4,107.6,964.4,107.5,964.4z
		 M108.2,976.4c0.1,0,0.2,0,0.3,0c11.3-0.2,21.7,1.8,35.5,13.3v144.1c0,3.3,2.6,6,5.9,6.1c3.3,0,6-2.6,6.1-5.9c0-0.1,0-0.1,0-0.2
		V989.7c13.9-11.5,24.2-13.6,35.5-13.3c0.1,0,0.2,0,0.3,0c0.4,0,0.8,0.1,1.2,0.1v64.1c0,3.3,2.6,6,6,6c1.6,0,3-0.6,4.2-1.6
		l17.3-16.1l16.3,16c2.4,2.3,6.2,2.3,8.5,0c1.1-1.1,1.7-2.7,1.7-4.3v-35c0-3.3-2.6-6-5.9-6.1c-3.3,0-6,2.6-6.1,5.9
		c0,0.1,0,0.1,0,0.2v20.6l-10.2-10c-2.3-2.3-6-2.3-8.3-0.1l-11.4,10.7v-48.7c10.9,2.1,20,5.4,29.2,8.7c11,4,22.3,7.8,35.8,8.9v156.8
		c-22.3-1.2-40-8.7-58.2-12.9c-18.8-4.3-39-2.8-61.8,15.5c-22.8-18.3-43-19.8-61.8-15.5c-18.2,4.2-35.9,11.8-58.2,12.9V995.8
		c13.5-1.1,24.8-4.9,35.8-8.9C78.4,982.3,90.9,977.7,108.2,976.4z"/>
</g>
</svg>
